<?xml version="1.0" encoding="utf-8"?>
<!-- Svg Vector Icons : http://www.onlinewebfonts.com/icon -->
<!DOCTYPE svg PUBLIC "-//W3C//DTD SVG 1.1//EN" "http://www.w3.org/Graphics/SVG/1.1/DTD/svg11.dtd">
<svg version="1.1" xmlns="http://www.w3.org/2000/svg" xmlns:xlink="http://www.w3.org/1999/xlink" x="0px" y="0px" viewBox="0 0 1000 1000" enable-background="new 0 0 1000 1000" xml:space="preserve">
<metadata> Svg Vector Icons : http://www.onlinewebfonts.com/icon </metadata>
<g><g transform="translate(0.000000,511.000000) scale(0.100000,-0.100000)"><path d="M2694.4,4935c-516.8-180.3-925.9-463-1491.2-1028.2c-438.7-438.7-646-702.5-845.2-1076.7c-263.8-497.9-323-861.3-188.4-1146.6c91.5-193.8,226.1-293.4,724-530.2C1803.5,717.2,2804.8,205.8,3222-39.2c842.5-492.6,1660.7-1055.1,2301.3-1582.7c393-323,1512.7-1442.7,2312.1-2314.8c600.2-651.4,726.7-769.8,896.3-826.3c258.4-83.5,646,32.3,877.5,263.8c231.5,231.5,347.2,619.1,263.8,877.5c-56.5,169.6-174.9,296.1-826.3,896.3C8185.3-1936.8,7060.2-811.7,6731.8-413.3C6204.3,227.3,5641.7,1045.6,5149.2,1888c-245,417.2-756.4,1418.5-1192.4,2328.3c-105,223.4-234.2,460.3-288,530.3C3464.2,5013,3117,5080.3,2694.4,4935z M3030.8,4108.6c226.1-105,500.6-403.7,640.6-691.7c142.7-293.4,199.2-487.2,201.9-691.7c2.7-201.9-51.2-298.8-166.9-298.8c-43.1,0-86.1,13.5-94.2,26.9c-48.4,78.1-261.1-21.5-530.3-247.6c-148-121.1-358-390.3-428-546.4c-43.1-94.2-43.1-113-8.1-150.7c21.5-21.5,37.7-72.7,37.7-113c0-107.7-102.3-161.5-298.8-158.8c-204.6,2.7-398.4,59.2-691.7,201.9c-406.4,196.5-759,605.6-759,882.9c0,131.9,83.4,201.9,468.3,387.6c298.8,142.7,341.8,172.3,584.1,414.5s271.9,285.3,414.5,584.1c86.1,175,185.7,352.6,223.4,395.7C2713.2,4197.5,2834.4,4200.1,3030.8,4108.6z M9132.8-3530.2c183-166.9,145.4-460.3-72.7-573.3c-140-70-312.2-37.7-419.9,80.7c-75.4,83.4-88.8,115.7-88.8,234.2c0,123.8,10.8,148.1,105,242.3c94.2,94.2,118.4,105,242.2,105C9017-3441.4,9049.3-3454.9,9132.8-3530.2z"/></g></g>
</svg>